<?xml version="1.0" encoding="UTF-8" ?>
<!DOCTYPE svg PUBLIC "-//W3C//DTD SVG 1.1//EN" "http://www.w3.org/Graphics/SVG/1.1/DTD/svg11.dtd">
<svg width="600pt" height="200pt" viewBox="0 0 600 200" version="1.1" xmlns="http://www.w3.org/2000/svg">
<g id="#000000ff">
<path fill="#000000" opacity="1.00" d=" M 390.26 13.25 C 397.42 11.79 404.72 10.99 412.03 10.70 C 420.69 10.92 429.27 11.89 437.87 12.83 C 441.72 14.22 445.85 14.47 449.72 15.78 C 447.62 20.64 446.42 25.93 443.78 30.50 C 443.55 32.08 443.36 33.66 443.19 35.24 C 441.27 35.40 439.35 35.54 437.44 35.67 C 437.50 32.92 437.54 30.18 437.42 27.43 C 436.63 26.28 435.87 25.10 435.17 23.91 C 433.33 22.26 431.24 20.94 429.09 19.76 C 416.05 14.90 401.05 14.73 388.05 19.83 C 375.41 25.52 365.62 36.14 359.07 48.16 C 358.02 50.30 357.05 52.48 355.76 54.48 C 355.62 55.07 355.35 56.24 355.22 56.82 C 353.57 59.35 353.38 62.47 351.80 65.03 C 351.64 67.82 350.91 70.49 349.87 73.06 C 349.24 78.64 349.54 84.29 349.71 89.89 C 350.11 90.65 350.51 91.40 350.91 92.16 C 351.22 93.55 351.51 94.95 351.82 96.35 C 355.31 103.21 360.91 109.07 368.08 112.12 C 371.25 113.70 374.86 113.92 378.14 115.22 C 385.00 115.45 392.10 116.21 398.83 114.69 C 404.65 113.76 410.43 112.56 416.01 110.65 C 419.92 109.53 423.53 107.42 427.63 106.96 C 427.57 109.04 427.50 111.12 427.47 113.21 C 421.45 117.28 413.85 117.81 407.15 120.30 C 402.99 120.44 399.19 122.46 395.03 122.46 C 393.06 122.55 391.05 122.61 389.22 123.40 C 381.77 123.93 374.26 123.97 366.82 123.39 C 362.53 122.29 358.09 121.96 353.94 120.21 C 345.40 116.93 337.97 110.73 333.72 102.58 C 333.60 101.93 333.37 100.64 333.26 100.00 C 332.86 99.65 332.06 98.95 331.66 98.60 C 331.55 97.06 331.42 95.52 331.26 93.98 C 330.55 92.04 330.23 89.99 329.77 87.99 C 328.91 80.88 331.09 73.96 331.80 66.96 C 332.57 64.76 333.58 62.63 333.75 60.26 C 334.30 59.60 334.85 58.94 335.41 58.29 C 335.47 57.64 335.60 56.34 335.67 55.69 C 336.87 53.80 337.95 51.83 339.09 49.89 C 339.47 48.77 339.87 47.62 341.04 47.10 C 342.21 44.41 344.57 42.53 346.03 40.02 C 347.19 39.40 347.57 38.17 348.01 37.02 C 348.47 36.83 349.40 36.46 349.86 36.27 C 360.58 24.73 375.06 17.04 390.26 13.25 Z" />
<path fill="#000000" opacity="1.00" d=" M 317.99 12.64 C 324.02 12.87 329.86 11.16 335.87 11.19 C 336.31 16.38 333.98 20.98 332.93 25.91 C 331.58 29.19 331.24 32.76 329.82 36.01 C 329.44 38.77 329.19 41.60 327.70 44.03 C 327.56 45.70 327.46 47.37 327.37 49.04 C 326.81 50.03 326.25 51.02 325.69 52.00 C 325.57 53.68 325.45 55.35 325.35 57.03 C 324.95 57.76 324.57 58.48 324.18 59.20 C 323.46 61.94 323.60 64.88 322.35 67.48 C 321.25 69.88 321.70 72.68 320.57 75.08 C 319.11 78.27 319.87 82.10 317.77 85.05 C 317.55 87.50 317.40 90.02 316.31 92.27 C 315.07 95.56 315.80 99.27 314.12 102.45 C 313.73 104.45 312.58 108.22 315.52 108.71 C 315.52 109.07 315.54 109.80 315.54 110.17 C 321.75 113.88 328.93 111.77 335.61 111.05 C 335.57 112.11 335.49 114.23 335.45 115.29 C 334.01 115.58 332.58 115.91 331.16 116.27 C 327.90 117.32 324.38 117.16 321.16 118.34 C 311.76 119.65 302.66 122.69 293.13 122.89 C 293.35 119.15 293.12 115.26 294.71 111.77 C 295.50 109.91 295.54 107.86 295.65 105.87 C 296.15 104.85 296.67 103.84 297.19 102.83 C 296.99 97.99 299.94 93.80 299.69 88.96 C 300.23 87.97 300.76 86.98 301.30 85.99 C 301.45 83.20 301.44 80.23 303.21 77.89 C 302.93 73.65 305.40 70.04 305.63 65.90 C 305.74 64.15 306.46 62.53 307.19 60.95 C 307.48 58.20 307.70 55.35 309.19 52.93 C 309.44 50.51 309.63 48.04 310.65 45.79 C 311.76 42.92 311.47 39.72 312.76 36.90 C 313.28 35.42 313.56 33.89 313.60 32.32 L 311.91 32.59 C 309.05 37.63 305.19 42.10 301.69 46.73 C 301.39 47.90 301.09 49.16 299.83 49.64 C 297.69 52.23 295.77 54.98 293.61 57.56 L 293.33 58.46 C 285.87 67.74 279.15 77.60 271.89 87.04 C 271.47 88.13 270.96 89.22 269.86 89.77 C 265.09 96.72 259.40 103.09 255.07 110.28 C 251.94 111.22 248.70 111.70 245.44 111.82 C 245.41 108.88 245.41 105.93 245.20 102.99 C 244.16 97.44 243.44 91.78 243.22 86.12 C 241.69 83.33 241.40 80.15 241.23 77.03 C 239.86 74.59 239.39 71.84 239.17 69.08 C 237.44 66.77 237.65 63.76 236.55 61.20 C 235.82 59.56 235.44 57.80 235.12 56.04 C 233.65 53.94 233.29 51.42 233.20 48.91 C 232.78 48.76 231.96 48.46 231.55 48.31 C 231.47 46.80 231.40 45.29 231.33 43.78 C 230.96 43.66 230.21 43.42 229.83 43.30 C 229.39 41.53 228.77 39.83 228.13 38.13 C 227.61 40.83 227.24 43.57 226.35 46.19 C 225.39 47.98 225.43 50.03 225.29 52.00 C 224.96 52.75 224.62 53.49 224.29 54.23 C 223.16 57.45 223.64 61.08 221.74 64.05 C 221.50 66.12 221.45 68.26 220.59 70.20 C 219.29 73.04 219.80 76.47 217.68 78.96 C 217.58 79.77 217.40 81.38 217.31 82.19 C 215.57 84.43 215.39 87.41 213.71 89.67 C 213.57 90.20 213.29 91.25 213.15 91.78 C 206.90 103.87 197.66 115.09 184.67 120.18 C 175.23 123.95 164.86 124.35 154.85 123.39 C 151.22 122.38 147.51 121.69 144.03 120.20 C 141.79 118.96 139.36 118.04 137.30 116.52 L 137.58 114.62 C 140.90 112.16 143.69 109.07 146.97 106.58 C 147.75 106.50 149.30 106.35 150.08 106.27 C 152.90 110.41 157.25 113.17 161.69 115.29 C 167.93 117.14 174.72 118.55 181.04 116.15 C 190.70 113.59 197.09 105.12 201.21 96.52 C 201.38 95.34 201.56 94.16 201.74 92.98 C 202.85 91.51 203.45 89.78 203.47 87.94 C 203.58 85.14 205.26 82.71 205.44 79.91 C 205.61 78.13 206.10 76.42 206.76 74.76 C 207.33 72.87 207.50 70.90 207.72 68.96 C 209.74 65.52 209.13 61.34 210.77 57.78 C 211.35 55.88 211.51 53.90 211.73 51.94 C 213.96 48.26 213.00 43.63 215.17 39.91 C 215.41 37.45 215.54 34.91 216.74 32.70 C 217.62 29.43 217.50 25.90 219.25 22.91 C 219.30 21.80 219.35 20.69 219.40 19.59 C 214.95 19.42 210.48 19.27 206.04 19.71 C 201.13 21.20 196.03 22.51 191.96 25.81 C 187.46 28.63 184.48 33.06 181.78 37.49 C 180.77 41.42 178.75 45.08 179.46 49.30 C 174.33 52.07 168.81 54.13 163.30 56.03 C 163.32 53.35 163.37 50.66 163.61 47.99 C 164.99 46.07 165.38 43.68 166.41 41.58 C 171.01 31.56 180.19 24.38 190.02 19.86 C 191.68 19.28 193.30 18.59 194.82 17.70 C 195.39 17.61 196.52 17.44 197.09 17.35 C 199.82 15.83 203.06 15.90 205.87 14.62 C 210.52 14.54 215.08 13.68 219.64 12.84 C 225.52 12.28 231.46 12.65 237.36 12.60 C 237.43 13.40 237.55 15.01 237.62 15.81 C 238.02 16.10 238.83 16.67 239.24 16.95 C 239.76 18.89 238.82 21.96 241.30 22.75 C 241.43 23.51 241.68 25.02 241.80 25.78 C 243.23 27.14 243.60 29.02 243.84 30.90 C 245.69 34.65 246.94 38.73 247.93 42.79 C 249.25 44.57 249.56 46.75 249.84 48.88 C 251.39 50.88 251.50 53.43 251.83 55.84 C 253.74 58.09 253.15 61.22 254.36 63.77 C 255.45 66.36 255.33 69.25 256.37 71.85 C 256.49 72.16 256.72 72.80 256.84 73.11 C 257.54 75.61 257.38 78.29 258.35 80.72 C 259.70 83.91 259.55 87.41 259.78 90.80 C 263.18 88.86 265.13 85.39 267.34 82.30 C 271.67 76.61 275.86 70.81 279.98 64.98 C 281.31 63.91 281.69 62.10 283.08 61.09 C 288.39 53.14 294.43 45.68 299.89 37.82 C 301.14 37.35 301.48 36.13 301.85 34.98 C 305.79 30.04 309.46 24.83 313.13 19.67 C 314.77 17.34 316.83 15.28 317.99 12.64 Z" />
<path fill="#000000" opacity="1.00" d=" M 579.77 134.18 C 584.93 131.93 590.69 132.28 596.15 132.96 C 595.26 133.18 594.38 133.41 593.50 133.63 C 593.52 134.01 593.56 134.78 593.58 135.16 C 592.38 135.57 591.52 136.35 591.00 137.52 C 586.87 135.89 582.17 134.80 578.06 137.11 C 575.55 138.66 574.25 141.32 573.11 143.91 C 570.57 151.43 568.88 159.23 567.22 166.99 C 566.08 169.54 565.77 172.34 565.30 175.07 C 564.45 176.46 563.90 178.62 565.70 179.54 C 570.01 180.32 572.42 175.51 576.48 175.30 C 576.63 174.75 576.93 173.65 577.07 173.10 C 577.18 173.85 577.28 174.60 577.40 175.35 C 575.73 176.60 574.13 177.92 572.58 179.31 C 571.06 180.21 569.53 181.07 568.00 181.93 C 565.43 183.15 562.49 183.67 559.83 182.45 C 559.10 181.56 558.37 180.70 557.63 179.85 C 557.77 178.27 557.96 176.71 558.15 175.14 C 558.45 174.09 558.76 173.05 559.25 172.07 C 560.67 164.56 562.59 157.16 564.66 149.80 C 567.43 142.92 572.60 136.70 579.77 134.18 Z" />
<path fill="#000000" opacity="1.00" d=" M 385.97 137.32 C 386.32 136.85 387.03 135.90 387.38 135.43 C 387.31 135.77 387.19 136.44 387.13 136.78 C 386.76 137.11 386.03 137.77 385.66 138.09 C 385.58 138.59 385.41 139.57 385.32 140.06 C 384.32 140.82 383.32 141.59 382.34 142.36 C 381.71 142.44 380.47 142.62 379.84 142.70 C 379.33 144.97 376.84 144.09 375.18 144.38 C 376.74 142.80 378.07 140.98 379.92 139.70 C 381.87 138.76 383.75 137.53 385.97 137.32 Z" />
<path fill="#000000" opacity="1.00" d=" M 441.61 142.74 C 443.65 142.25 445.68 141.68 447.71 141.13 C 447.65 143.76 447.55 146.40 447.44 149.03 C 447.03 149.37 446.22 150.03 445.82 150.36 C 450.48 150.92 455.21 150.77 459.83 151.77 C 458.69 152.65 457.68 153.67 456.60 154.60 C 454.65 155.58 453.10 153.58 451.66 152.63 C 449.67 152.62 447.68 152.64 445.71 152.67 C 445.52 154.74 445.71 156.94 444.59 158.79 C 443.32 165.75 440.55 172.47 441.38 179.68 C 445.54 180.06 449.22 177.94 453.22 177.24 C 448.54 180.90 442.47 184.64 436.35 182.47 C 435.46 181.51 434.57 180.57 433.66 179.64 C 433.62 177.49 433.54 175.29 434.27 173.23 C 435.69 170.21 435.33 166.75 436.58 163.69 C 438.10 160.25 437.61 156.40 437.87 152.74 C 435.52 152.62 433.17 152.46 430.87 151.97 C 433.96 151.37 437.14 151.27 440.18 150.39 C 440.35 148.85 440.36 147.21 441.21 145.85 C 441.31 145.07 441.51 143.52 441.61 142.74 Z" />
<path fill="#000000" opacity="1.00" d=" M 25.19 152.34 C 29.66 150.14 34.81 151.15 39.54 151.67 C 39.33 154.02 38.92 156.33 38.41 158.63 C 37.50 159.38 36.59 160.13 35.69 160.89 C 35.36 158.53 36.32 155.47 34.01 153.90 C 31.99 152.20 29.13 152.70 26.70 152.41 C 25.60 153.47 24.30 154.27 22.83 154.70 C 21.01 156.70 19.28 158.77 17.62 160.90 C 15.91 166.11 16.00 171.66 16.54 177.05 C 17.61 177.88 18.67 178.72 19.73 179.57 C 22.54 179.62 25.35 179.61 28.16 179.39 C 30.69 178.12 33.78 178.47 36.07 176.66 C 36.99 176.77 37.90 176.88 38.82 177.01 C 37.77 177.22 36.72 177.43 35.68 177.63 C 35.58 178.04 35.40 178.86 35.31 179.27 C 33.38 179.49 31.51 180.05 29.88 181.11 C 25.64 182.06 21.46 183.54 17.05 183.27 C 13.12 182.41 9.42 179.89 8.24 175.88 C 7.55 174.41 7.60 172.80 7.74 171.22 C 9.69 162.46 16.54 154.85 25.19 152.34 Z" />
<path fill="#000000" opacity="1.00" d=" M 62.71 152.81 C 69.45 150.49 76.59 150.62 83.57 151.54 C 83.15 153.70 82.62 155.86 81.64 157.85 C 81.19 162.30 79.13 166.39 78.83 170.87 C 78.50 171.92 78.11 172.95 77.58 173.93 C 77.44 175.83 77.38 177.75 77.35 179.66 C 79.28 179.58 81.27 179.60 83.05 178.75 C 84.59 177.96 86.14 177.17 87.69 176.38 C 88.16 175.74 88.31 174.74 89.15 174.48 C 88.83 175.42 88.40 176.32 88.02 177.25 C 87.59 177.35 86.72 177.56 86.29 177.66 C 84.98 178.92 83.64 180.16 82.29 181.37 C 81.73 181.46 80.61 181.64 80.05 181.73 C 77.66 183.81 74.44 183.18 71.66 182.42 C 69.34 178.70 71.13 174.31 71.72 170.37 L 69.79 170.41 C 65.89 176.27 60.36 182.18 53.02 183.16 C 49.57 183.68 46.71 181.21 45.40 178.23 C 45.44 176.13 45.47 174.03 45.60 171.94 C 48.32 163.52 54.77 156.64 62.71 152.81 M 63.85 154.59 C 62.59 155.40 61.29 156.17 59.98 156.91 C 58.35 158.74 56.96 160.76 55.72 162.87 C 53.16 167.41 52.88 172.59 53.41 177.69 C 55.74 177.56 58.41 178.03 60.29 176.31 C 65.77 171.95 71.02 167.10 74.51 160.95 C 74.60 159.19 74.69 157.44 74.78 155.68 C 71.26 154.43 67.54 154.27 63.85 154.59 Z" />
<path fill="#000000" opacity="1.00" d=" M 98.01 152.02 C 99.59 151.47 101.25 151.23 102.91 151.06 C 103.97 151.26 105.04 151.45 106.11 151.64 C 106.45 152.03 107.12 152.81 107.45 153.20 C 108.16 157.98 105.97 162.56 106.67 167.32 C 107.01 165.99 107.30 164.66 107.54 163.32 C 107.93 163.38 108.71 163.51 109.10 163.57 C 109.60 160.69 112.08 158.92 113.94 156.92 C 116.86 153.84 120.66 151.30 125.01 151.05 C 126.03 151.28 127.05 151.50 128.07 151.72 C 129.35 153.48 131.21 155.42 130.31 157.80 C 129.43 160.63 129.21 163.58 129.73 166.53 C 132.19 159.85 137.64 154.57 143.96 151.45 C 146.08 151.36 148.20 151.33 150.33 151.35 C 151.11 152.10 151.90 152.85 152.70 153.60 C 152.76 156.07 152.76 158.55 152.49 161.02 C 151.11 163.55 151.38 166.55 150.39 169.22 C 149.15 172.48 148.75 176.02 148.52 179.49 C 150.33 179.47 152.14 179.44 153.96 179.40 L 153.59 181.29 C 150.12 182.91 146.29 183.03 142.56 182.46 C 142.25 179.25 141.93 175.94 143.03 172.84 C 143.43 170.11 144.00 167.41 145.13 164.88 C 145.32 162.07 146.42 159.40 146.46 156.57 C 144.85 156.51 143.24 156.46 141.64 156.42 C 135.95 160.18 131.70 165.50 127.70 170.92 C 126.17 174.63 125.38 178.58 124.27 182.43 C 122.24 182.49 120.21 182.56 118.18 182.62 C 118.40 181.01 118.63 179.40 118.99 177.81 C 119.90 173.21 121.23 168.70 122.30 164.14 C 123.22 161.64 123.45 158.98 123.49 156.34 C 121.30 156.38 118.92 156.26 117.26 157.96 C 112.15 162.36 107.25 167.19 103.77 173.02 C 103.21 176.24 102.49 179.43 101.17 182.45 C 99.18 182.52 97.20 182.59 95.22 182.66 C 94.89 178.23 97.46 174.41 97.77 170.07 C 98.96 167.38 99.40 164.45 99.60 161.54 L 100.27 161.38 C 100.56 160.16 100.87 158.95 101.25 157.75 C 101.94 154.94 99.32 153.95 96.95 154.52 C 95.64 155.45 94.32 156.36 92.99 157.26 C 90.60 157.14 90.44 159.34 89.93 161.05 C 89.76 160.16 89.59 159.27 89.42 158.38 C 92.22 156.18 94.87 153.74 98.01 152.02 Z" />
<path fill="#000000" opacity="1.00" d=" M 319.88 151.56 C 320.94 151.39 322.01 151.23 323.08 151.06 C 328.11 150.73 331.35 154.94 333.29 159.02 C 333.55 161.82 334.18 164.57 335.22 167.18 C 335.37 169.80 335.41 172.43 335.52 175.05 C 341.59 171.97 345.10 165.68 349.33 160.59 C 349.56 158.67 349.62 156.45 351.88 155.93 C 349.23 155.98 350.46 152.99 350.16 151.32 C 352.26 151.36 354.36 151.41 356.47 151.52 C 356.67 154.33 357.18 157.60 355.05 159.87 C 347.80 167.83 339.74 175.01 332.25 182.74 C 332.34 182.38 332.53 181.65 332.62 181.28 C 332.12 181.20 331.11 181.05 330.61 180.98 L 330.62 183.81 C 329.64 182.37 329.13 180.75 329.08 178.96 C 328.07 171.20 328.65 162.06 322.25 156.34 C 319.03 155.89 316.11 157.08 313.45 158.77 C 313.43 159.23 313.41 160.16 313.39 160.62 C 312.85 160.58 311.78 160.48 311.24 160.44 C 312.30 156.15 316.57 153.97 319.88 151.56 Z" />
<path fill="#000000" opacity="1.00" d=" M 396.01 152.42 C 398.81 150.75 402.16 151.33 405.23 151.57 C 407.26 155.48 405.80 159.71 405.33 163.79 C 405.80 163.75 406.73 163.66 407.20 163.62 C 410.08 159.11 414.19 155.36 418.76 152.61 C 421.46 150.84 424.81 151.34 427.86 151.31 C 427.81 153.46 426.23 154.81 425.12 156.43 C 422.70 156.42 420.29 156.39 417.89 156.48 C 409.40 162.37 401.10 171.29 401.28 182.27 C 398.70 182.86 396.06 183.46 393.42 182.92 C 393.50 182.18 393.66 180.72 393.74 179.98 C 396.20 176.82 395.17 172.43 397.31 169.09 C 397.48 167.13 397.64 165.14 398.26 163.25 C 399.54 160.74 399.62 157.90 399.63 155.14 C 397.26 155.28 394.71 154.99 392.53 156.09 C 390.79 157.19 389.31 158.64 387.73 159.95 C 387.71 159.44 387.67 158.43 387.65 157.93 C 390.90 156.86 392.81 153.64 396.01 152.42 Z" />
<path fill="#000000" opacity="1.00" d=" M 530.03 152.28 C 535.81 149.86 542.26 151.11 548.32 151.54 C 546.05 160.80 542.41 169.92 542.20 179.54 C 543.66 179.56 545.13 179.58 546.61 179.61 L 546.64 178.68 C 548.32 178.40 550.48 178.63 550.93 176.49 C 551.38 176.59 552.27 176.79 552.71 176.89 C 552.78 176.16 552.91 174.72 552.98 174.00 C 553.11 175.04 553.23 176.09 553.37 177.14 C 552.86 177.26 551.84 177.50 551.33 177.62 C 549.45 179.37 547.36 180.88 545.02 181.96 C 542.07 183.46 538.79 183.26 535.72 182.27 C 535.09 177.57 536.03 172.82 535.35 168.12 C 533.78 173.14 529.65 176.67 525.74 179.90 C 522.44 182.66 517.96 183.42 513.83 182.51 C 511.89 181.46 510.09 179.55 510.32 177.18 C 509.43 167.72 516.39 159.65 523.82 154.78 C 525.10 154.18 526.35 153.51 527.56 152.76 C 528.18 152.64 529.41 152.40 530.03 152.28 M 523.80 158.05 C 519.35 163.30 515.85 170.88 518.43 177.74 C 519.99 177.68 521.56 177.62 523.14 177.56 C 529.71 172.96 535.76 167.28 539.49 160.09 C 539.54 158.64 539.58 157.18 539.64 155.73 C 534.42 153.95 527.66 153.26 523.80 158.05 Z" />
<path fill="#000000" opacity="1.00" d=" M 175.16 153.27 C 177.22 152.49 179.77 152.87 181.37 151.12 C 181.34 152.40 181.33 153.68 181.34 154.96 C 180.75 155.94 180.17 156.92 179.57 157.90 C 179.47 159.67 179.38 161.44 179.32 163.22 C 181.48 162.58 182.62 160.59 184.01 159.02 C 186.45 156.09 189.54 153.78 192.92 152.04 C 195.57 151.00 198.45 151.29 201.24 151.36 C 202.32 152.39 203.40 153.42 204.49 154.45 C 204.69 157.29 204.79 160.15 204.44 162.99 C 203.89 164.24 203.46 165.54 203.07 166.86 C 202.38 167.90 201.72 168.95 201.09 170.03 C 197.89 174.96 193.07 178.40 188.09 181.34 C 187.55 181.43 186.48 181.61 185.95 181.71 C 182.28 183.93 177.84 182.68 174.04 183.08 C 171.94 188.17 169.24 193.10 164.72 196.45 C 162.57 198.79 159.27 197.58 156.61 197.13 C 158.09 196.86 159.59 196.62 161.08 196.38 C 161.72 195.56 162.36 194.74 163.01 193.94 C 163.73 192.70 164.47 191.48 165.19 190.25 C 166.49 185.94 167.20 181.48 168.43 177.20 C 169.38 174.59 169.23 171.71 170.36 169.16 C 171.82 165.39 171.65 161.29 171.70 157.33 C 169.33 157.37 166.97 157.41 164.60 157.32 C 167.59 154.79 171.58 154.46 175.16 153.27 M 192.00 156.45 C 185.63 160.92 179.83 166.36 175.86 173.12 C 175.39 174.80 175.46 176.57 175.30 178.30 C 179.00 179.75 183.11 180.04 186.99 179.18 C 190.65 177.49 192.90 174.02 195.04 170.78 C 195.42 169.56 195.86 168.37 196.34 167.19 C 197.77 164.26 197.68 160.89 197.36 157.73 C 196.47 155.51 193.81 156.70 192.00 156.45 Z" />
<path fill="#000000" opacity="1.00" d=" M 271.24 152.07 C 275.16 150.66 279.39 151.40 283.44 151.62 C 283.46 153.65 283.46 155.68 283.46 157.72 C 282.48 157.71 281.49 157.71 280.52 157.72 C 280.07 156.40 279.62 155.09 279.20 153.77 C 276.64 152.86 273.93 152.34 271.24 152.07 Z" />
<path fill="#000000" opacity="1.00" d=" M 209.89 155.62 C 213.00 153.73 216.15 151.36 219.95 151.28 C 221.83 151.34 224.30 150.84 225.43 152.79 C 225.79 156.58 225.78 160.66 223.81 164.05 C 223.73 168.78 220.81 172.91 221.42 177.71 C 223.39 177.57 225.63 177.87 227.21 176.42 C 231.09 173.19 234.80 169.64 237.57 165.40 C 237.58 166.73 237.59 169.39 237.60 170.73 C 237.15 170.63 236.26 170.43 235.81 170.33 C 234.00 175.40 229.33 178.96 225.09 182.03 C 221.90 183.03 218.30 183.31 215.30 181.59 C 215.41 176.97 214.74 172.09 216.77 167.78 C 217.32 165.54 217.47 163.21 218.25 161.03 C 218.36 160.74 218.58 160.14 218.68 159.84 C 219.33 158.17 219.39 156.37 219.44 154.59 C 217.93 154.58 216.43 154.58 214.93 154.61 C 213.44 155.63 211.66 155.78 209.89 155.62 Z" />
<path fill="#000000" opacity="1.00" d=" M 243.72 151.23 C 245.74 151.22 247.76 151.23 249.78 151.24 C 249.59 153.96 249.53 156.85 247.80 159.12 C 247.52 161.55 247.33 164.03 246.30 166.29 C 245.28 168.98 245.61 172.00 244.32 174.62 C 243.58 176.12 243.64 177.81 243.52 179.44 C 245.75 179.46 247.97 179.46 250.21 179.48 C 247.51 183.30 241.23 183.80 237.34 181.43 C 237.67 177.57 236.54 173.06 239.29 169.85 C 238.12 167.21 238.04 164.34 239.80 161.92 C 240.19 161.65 240.98 161.10 241.37 160.82 C 241.45 159.19 241.55 157.56 241.68 155.94 C 242.49 154.43 243.12 152.83 243.72 151.23 Z" />
<path fill="#000000" opacity="1.00" d=" M 369.41 154.69 C 373.58 154.10 377.40 151.96 381.71 152.09 C 381.59 153.72 381.48 155.38 380.73 156.87 C 379.35 159.42 379.66 162.41 378.57 165.05 C 377.23 168.29 377.68 172.04 375.74 175.08 C 375.66 176.55 375.62 178.04 375.58 179.52 C 377.79 179.47 380.00 179.42 382.22 179.39 C 379.83 183.05 374.60 183.17 370.69 182.50 C 370.40 182.21 369.83 181.64 369.54 181.36 C 368.44 174.60 371.45 168.32 372.57 161.80 C 373.57 160.27 373.31 158.43 373.38 156.71 C 372.00 156.54 370.62 156.38 369.25 156.22 C 369.29 155.84 369.37 155.08 369.41 154.69 Z" />
<path fill="#000000" opacity="1.00" d=" M 465.65 154.52 C 468.01 150.44 473.48 151.29 477.46 151.55 C 477.82 155.81 478.11 160.28 476.24 164.25 C 475.68 166.96 475.29 169.72 474.21 172.28 C 473.77 174.03 473.62 175.82 473.52 177.61 C 480.00 179.04 482.89 172.03 487.58 169.14 C 487.58 168.73 487.58 167.91 487.58 167.50 C 488.67 167.28 489.69 167.36 490.67 167.73 C 490.51 169.40 489.00 170.18 487.76 170.97 C 487.65 171.46 487.42 172.44 487.31 172.94 C 484.09 176.55 480.98 180.58 476.27 182.36 C 473.33 183.16 470.03 183.07 467.46 181.28 C 467.50 176.82 466.89 172.00 469.20 167.96 C 469.31 163.33 472.02 159.23 471.56 154.55 C 469.59 154.55 467.61 154.54 465.65 154.52 Z" />
<path fill="#000000" opacity="1.00" d=" M 495.73 151.31 C 497.76 151.26 499.80 151.22 501.84 151.20 C 501.72 153.15 501.59 155.12 501.39 157.07 C 499.34 159.61 500.08 163.12 498.73 165.96 C 497.79 170.44 496.34 174.89 496.34 179.52 C 498.31 179.50 500.27 179.48 502.25 179.48 C 500.33 183.20 495.40 182.80 491.83 182.72 C 491.27 182.29 490.15 181.43 489.58 181.00 C 489.40 177.77 489.73 174.54 490.48 171.39 L 491.43 171.33 C 491.43 170.48 491.43 168.80 491.42 167.96 C 489.05 165.56 491.60 162.96 493.38 161.14 C 493.58 157.74 494.85 154.57 495.73 151.31 Z" />
<path fill="#000000" opacity="1.00" d=" M 263.47 156.80 C 264.87 155.83 266.25 154.86 267.70 153.96 C 267.67 155.34 267.64 156.73 267.60 158.12 C 270.98 163.16 276.50 166.45 279.25 171.93 C 280.17 175.20 277.24 177.83 275.06 179.77 C 274.58 179.66 273.62 179.43 273.14 179.31 C 273.28 177.38 273.50 175.46 273.62 173.54 C 270.22 170.39 267.14 166.89 263.50 164.00 C 263.33 161.60 263.32 159.20 263.47 156.80 Z" />
<path fill="#000000" opacity="1.00" d=" M 258.17 177.06 C 262.59 178.76 268.64 181.86 272.58 177.63 L 273.14 179.31 C 273.29 179.76 273.58 180.64 273.73 181.08 C 269.82 181.79 266.04 183.74 261.99 183.10 C 259.23 182.60 254.31 183.20 255.29 178.87 C 256.25 178.27 257.21 177.67 258.17 177.06 Z" />
</g>
</svg>
