<?xml version="1.0" encoding="UTF-8" ?>
<!DOCTYPE svg PUBLIC "-//W3C//DTD SVG 1.1//EN" "http://www.w3.org/Graphics/SVG/1.1/DTD/svg11.dtd">
<svg width="320pt" height="140pt" viewBox="0 0 320 140" version="1.1" xmlns="http://www.w3.org/2000/svg">
<g id="#000000ff">
<path fill="#000000" opacity="1.00" d=" M 183.74 14.77 C 190.34 13.79 196.98 13.17 203.66 13.31 C 198.90 26.48 195.70 40.17 192.47 53.79 C 188.83 68.53 185.30 83.30 181.74 98.05 C 181.53 102.58 179.07 107.75 182.10 111.84 C 187.72 116.39 195.25 113.51 201.54 112.28 C 201.53 114.00 201.53 115.72 201.52 117.45 C 191.51 120.20 181.11 121.00 171.00 123.32 C 166.79 124.37 162.43 124.63 158.22 125.72 C 158.82 121.29 159.93 116.93 161.08 112.62 C 166.93 88.13 172.89 63.66 178.85 39.20 C 179.29 37.43 179.45 35.60 179.60 33.79 C 176.03 36.21 174.16 40.23 171.52 43.51 C 164.05 53.17 157.35 63.39 149.94 73.09 C 140.70 85.53 131.46 97.96 122.35 110.49 C 120.09 114.27 115.19 113.35 111.48 113.81 C 111.54 106.47 109.64 99.30 109.30 91.99 C 106.99 79.09 103.65 66.37 99.31 54.00 C 97.92 49.95 96.76 45.67 94.03 42.28 C 92.35 49.61 90.42 56.89 88.76 64.22 C 85.94 76.05 82.87 88.11 76.50 98.60 C 71.91 105.47 66.90 112.40 59.85 116.96 C 52.92 121.97 44.64 125.26 36.06 125.66 C 31.38 125.84 26.70 125.88 22.03 125.56 C 15.42 125.03 9.39 122.06 3.50 119.26 C 3.47 118.32 3.43 117.37 3.40 116.43 C 7.29 113.58 10.84 110.30 14.86 107.63 C 21.08 115.48 31.09 119.74 41.02 119.34 C 48.44 118.68 55.32 114.74 60.17 109.17 C 64.97 104.14 67.54 97.47 69.10 90.80 C 74.11 69.40 79.17 48.02 84.25 26.64 C 84.63 25.09 84.90 23.50 84.77 21.91 C 77.72 20.45 70.39 21.96 63.77 24.52 C 53.09 28.70 45.29 39.40 45.13 50.95 C 40.44 54.28 34.72 55.80 29.32 57.59 C 29.34 54.88 29.20 52.07 30.23 49.50 C 32.74 42.58 36.41 35.83 42.11 31.02 C 49.29 24.75 58.05 20.47 67.24 18.05 C 78.30 15.46 89.68 13.96 101.05 14.61 C 102.81 14.31 103.36 16.18 103.93 17.41 C 112.25 37.92 119.12 59.04 123.84 80.68 C 124.97 84.67 125.68 88.76 125.79 92.91 C 126.81 92.27 127.86 91.64 128.70 90.77 C 135.82 82.36 141.07 72.57 148.17 64.16 C 155.22 55.41 161.35 45.98 167.89 36.85 C 173.80 29.96 178.67 22.28 183.74 14.77 Z" />
<path fill="#000000" opacity="1.00" d=" M 261.79 14.12 C 278.71 11.59 296.05 13.04 312.70 16.74 C 313.95 17.15 316.29 17.95 315.24 19.66 C 313.22 24.90 311.18 30.12 309.17 35.37 C 308.50 37.96 305.53 37.52 303.48 37.84 C 303.43 34.02 304.32 29.64 301.43 26.57 C 296.22 20.96 288.19 19.46 280.93 18.46 C 272.78 18.00 264.29 17.66 256.58 20.79 C 246.35 24.40 238.00 31.84 231.39 40.26 C 226.00 48.17 221.43 56.72 218.61 65.89 C 216.32 74.44 214.09 83.50 216.36 92.30 C 218.30 100.20 222.63 107.97 229.98 111.98 C 240.06 117.50 252.10 118.63 263.32 116.80 C 269.13 115.98 275.01 115.25 280.58 113.30 C 284.96 111.87 289.15 109.85 293.71 109.03 C 293.54 111.85 294.06 115.80 290.63 116.87 C 278.78 120.93 266.61 124.53 254.06 125.55 C 243.56 125.76 232.71 126.71 222.61 123.18 C 211.76 120.08 202.40 111.79 198.63 101.08 C 196.24 93.81 194.59 85.97 196.38 78.36 C 197.78 65.72 202.94 53.66 210.68 43.62 C 216.78 36.41 224.22 30.45 232.00 25.15 C 241.28 20.00 251.22 15.71 261.79 14.12 Z" />
</g>
</svg>
